<svg xmlns="http://www.w3.org/2000/svg" width="729.579" height="220.853" viewBox="0 0 729.579 220.853"><path fill="#5C4863" d="M32.017 175.818l-1.239-3.108h-6.971l-1.239 3.108h-1.995l5.627-14.004h2.163l5.648 14.004h-1.994zm-4.725-12.2l-2.981 7.538h5.942l-2.961-7.538zM48.544 175.818v-1.512c-.756 1.03-1.995 1.764-3.422 1.764-2.646 0-4.514-2.016-4.514-5.313 0-3.232 1.848-5.332 4.514-5.332 1.365 0 2.604.672 3.422 1.784v-5.396h1.575v14.004h-1.575zm0-2.751v-4.599c-.567-.882-1.785-1.638-3.044-1.638-2.037 0-3.254 1.68-3.254 3.926 0 2.247 1.218 3.906 3.254 3.906 1.259.001 2.477-.714 3.044-1.595zM52.682 170.736c0-2.939 1.932-5.312 5.018-5.312s5.018 2.372 5.018 5.312-1.932 5.333-5.018 5.333-5.018-2.393-5.018-5.333zm8.378 0c0-2.058-1.197-3.905-3.359-3.905s-3.38 1.848-3.38 3.905c0 2.079 1.218 3.927 3.38 3.927s3.359-1.848 3.359-3.927zM64.694 170.736c0-3.003 2.037-5.312 5.06-5.312 1.848 0 2.939.756 3.716 1.764l-1.05.965c-.672-.924-1.533-1.322-2.583-1.322-2.163 0-3.506 1.658-3.506 3.905s1.344 3.927 3.506 3.927c1.05 0 1.911-.42 2.583-1.323l1.05.966c-.777 1.008-1.869 1.764-3.716 1.764-3.024 0-5.06-2.31-5.06-5.334zM82.521 175.818v-1.428c-.777.881-2.1 1.68-3.611 1.68-2.121 0-3.233-1.029-3.233-3.234v-7.159h1.575v6.676c0 1.785.903 2.311 2.268 2.311 1.239 0 2.415-.715 3.002-1.533v-7.453h1.575v10.141h-1.576zM99.488 175.818v-6.887c0-1.281-.567-2.1-1.869-2.1-1.05 0-2.163.756-2.688 1.554v7.433h-1.575v-6.887c0-1.281-.546-2.1-1.869-2.1-1.029 0-2.121.756-2.667 1.574v7.413h-1.575v-10.141h1.575v1.469c.42-.65 1.785-1.721 3.275-1.721 1.554 0 2.436.84 2.729 1.889.567-.924 1.932-1.889 3.401-1.889 1.848 0 2.834 1.028 2.834 3.064v7.329h-1.571zM103.628 170.736c0-2.939 2.1-5.312 4.997-5.312 3.065 0 4.871 2.393 4.871 5.438v.398h-8.209c.126 1.911 1.47 3.507 3.653 3.507 1.155 0 2.331-.462 3.128-1.28l.756 1.028c-1.008 1.007-2.373 1.554-4.031 1.554-3.002.001-5.165-2.162-5.165-5.333zm4.976-4.01c-2.163 0-3.233 1.827-3.317 3.381h6.656c-.022-1.512-1.029-3.381-3.339-3.381zM122.883 175.818v-6.635c0-1.785-.903-2.352-2.268-2.352-1.239 0-2.415.756-3.002 1.574v7.413h-1.575v-10.141h1.575v1.469c.714-.84 2.1-1.721 3.611-1.721 2.121 0 3.233 1.07 3.233 3.275v7.118h-1.574zM127.924 173.696v-6.635h-1.68v-1.385h1.68v-2.771h1.575v2.771h2.058v1.385h-2.058v6.299c0 .756.336 1.303 1.029 1.303.441 0 .861-.189 1.071-.42l.462 1.176c-.399.377-.966.65-1.89.65-1.491.001-2.247-.861-2.247-2.373zM140.124 175.818v-1.155c-.84.924-1.995 1.407-3.359 1.407-1.722 0-3.548-1.154-3.548-3.36 0-2.268 1.827-3.338 3.548-3.338 1.386 0 2.541.44 3.359 1.385v-1.826c0-1.365-1.092-2.142-2.562-2.142-1.218 0-2.205.44-3.107 1.407l-.735-1.092c1.092-1.135 2.394-1.68 4.052-1.68 2.142 0 3.926.965 3.926 3.422v6.971h-1.574zm0-2.142v-1.911c-.609-.84-1.68-1.26-2.792-1.26-1.47 0-2.499.924-2.499 2.227 0 1.28 1.029 2.204 2.499 2.204 1.112-.001 2.183-.42 2.792-1.26zM145.165 173.696v-6.635h-1.68v-1.385h1.68v-2.771h1.575v2.771h2.058v1.385h-2.058v6.299c0 .756.336 1.303 1.029 1.303.441 0 .861-.189 1.071-.42l.462 1.176c-.399.377-.966.65-1.89.65-1.491.001-2.247-.861-2.247-2.373zM150.751 163.178c0-.588.483-1.071 1.05-1.071.588 0 1.071.483 1.071 1.071s-.483 1.05-1.071 1.05c-.567 0-1.05-.462-1.05-1.05zm.273 12.64v-10.141h1.575v10.141h-1.575zM155.161 170.736c0-2.939 1.932-5.312 5.018-5.312s5.018 2.372 5.018 5.312-1.932 5.333-5.018 5.333-5.018-2.393-5.018-5.333zm8.377 0c0-2.058-1.197-3.905-3.359-3.905s-3.38 1.848-3.38 3.905c0 2.079 1.218 3.927 3.38 3.927s3.359-1.848 3.359-3.927zM174.605 175.818v-6.635c0-1.785-.903-2.352-2.268-2.352-1.239 0-2.415.756-3.002 1.574v7.413h-1.575v-10.141h1.575v1.469c.714-.84 2.1-1.721 3.611-1.721 2.121 0 3.233 1.07 3.233 3.275v7.118h-1.574zM185.064 173.696v-6.635h-1.68v-1.385h1.68v-2.771h1.575v2.771h2.058v1.385h-2.058v6.299c0 .756.336 1.303 1.029 1.303.441 0 .861-.189 1.071-.42l.462 1.176c-.399.377-.966.65-1.89.65-1.491.001-2.247-.861-2.247-2.373zM190.335 170.736c0-2.939 1.932-5.312 5.018-5.312s5.018 2.372 5.018 5.312-1.932 5.333-5.018 5.333-5.018-2.393-5.018-5.333zm8.377 0c0-2.058-1.197-3.905-3.359-3.905s-3.38 1.848-3.38 3.905c0 2.079 1.218 3.927 3.38 3.927s3.359-1.848 3.359-3.927zM202.347 170.736c0-2.939 1.932-5.312 5.018-5.312s5.018 2.372 5.018 5.312-1.932 5.333-5.018 5.333-5.018-2.393-5.018-5.333zm8.378 0c0-2.058-1.197-3.905-3.359-3.905s-3.38 1.848-3.38 3.905c0 2.079 1.218 3.927 3.38 3.927s3.359-1.848 3.359-3.927zM214.947 175.818v-14.004h1.575v14.004h-1.575zM225.53 175.818v-8.756h-1.68v-1.385h1.68v-.777c0-2.078 1.134-3.297 2.939-3.297.798 0 1.512.189 2.142.777l-.651 1.029c-.336-.295-.735-.504-1.26-.504-1.029 0-1.596.713-1.596 1.994v.777h2.058v1.385h-2.058v8.756h-1.574zM230.444 170.736c0-2.939 1.932-5.312 5.018-5.312s5.018 2.372 5.018 5.312-1.932 5.333-5.018 5.333-5.018-2.393-5.018-5.333zm8.378 0c0-2.058-1.197-3.905-3.359-3.905s-3.38 1.848-3.38 3.905c0 2.079 1.218 3.927 3.38 3.927s3.359-1.848 3.359-3.927zM243.044 175.818v-10.141h1.575v1.637c.819-1.07 1.995-1.848 3.38-1.848v1.617c-.189-.042-.378-.062-.63-.062-.966 0-2.289.797-2.75 1.616v7.181h-1.575zM254.615 173.844l1.029-1.323c.924 1.029 2.436 1.995 4.409 1.995 2.499 0 3.296-1.344 3.296-2.415 0-3.611-8.293-1.616-8.293-6.613 0-2.31 2.058-3.885 4.808-3.885 2.142 0 3.8.715 4.976 1.953l-1.05 1.281c-1.05-1.155-2.52-1.68-4.052-1.68-1.68 0-2.876.902-2.876 2.225 0 3.15 8.293 1.344 8.293 6.572 0 2.037-1.386 4.116-5.165 4.116-2.436 0-4.22-.924-5.375-2.226zM274.039 175.818v-1.155c-.84.924-1.995 1.407-3.359 1.407-1.722 0-3.548-1.154-3.548-3.36 0-2.268 1.827-3.338 3.548-3.338 1.386 0 2.541.44 3.359 1.385v-1.826c0-1.365-1.092-2.142-2.562-2.142-1.218 0-2.205.44-3.107 1.407l-.735-1.092c1.092-1.135 2.394-1.68 4.052-1.68 2.142 0 3.926.965 3.926 3.422v6.971h-1.574zm0-2.142v-1.911c-.609-.84-1.68-1.26-2.792-1.26-1.47 0-2.499.924-2.499 2.227 0 1.28 1.029 2.204 2.499 2.204 1.112-.001 2.183-.42 2.792-1.26zM277.882 174.474l.819-1.134c.672.776 1.953 1.448 3.338 1.448 1.554 0 2.394-.734 2.394-1.742 0-2.457-6.278-.945-6.278-4.703 0-1.574 1.365-2.918 3.779-2.918 1.722 0 2.939.65 3.758 1.469l-.735 1.092c-.609-.734-1.722-1.28-3.023-1.28-1.386 0-2.247.692-2.247 1.596 0 2.226 6.278.756 6.278 4.703 0 1.7-1.365 3.066-3.989 3.066-1.658-.001-3.065-.505-4.094-1.597zM287.647 174.474l.819-1.134c.672.776 1.953 1.448 3.338 1.448 1.554 0 2.394-.734 2.394-1.742 0-2.457-6.278-.945-6.278-4.703 0-1.574 1.365-2.918 3.779-2.918 1.722 0 2.939.65 3.758 1.469l-.735 1.092c-.609-.734-1.722-1.28-3.023-1.28-1.386 0-2.247.692-2.247 1.596 0 2.226 6.278.756 6.278 4.703 0 1.7-1.365 3.066-3.989 3.066-1.658-.001-3.065-.505-4.094-1.597zM297.979 174.873c0-.629.525-1.155 1.155-1.155s1.155.525 1.155 1.155c0 .631-.525 1.154-1.155 1.154s-1.155-.524-1.155-1.154z"/><path fill="#DD5A6F" d="M315.702 175.818l-2.352-5.565h-2.939l-1.197 5.565h-1.743l3.086-14.004h5.144c2.016 0 3.968 1.364 3.968 3.652 0 2.583-1.827 4.515-4.556 4.703l2.52 5.649h-1.931zm-1.239-7.097c2.163 0 3.359-1.407 3.359-3.107 0-1.323-1.176-2.247-2.373-2.247h-3.485l-1.197 5.354h3.696zM320.239 175.818l3.086-14.004h9.175l-.336 1.553h-7.432l-1.008 4.515h7.286l-.336 1.554h-7.307l-1.071 4.829h7.454l-.336 1.554h-9.175zM332.188 175.818l3.086-14.004h1.743l-2.771 12.45h6.53l-.336 1.554h-8.252zM343.045 175.818l3.086-14.004h9.176l-.336 1.553h-7.433l-1.008 4.515h7.287l-.336 1.554h-7.307l-1.071 4.829h7.455l-.336 1.554h-9.177zM365.071 175.818l-.545-3.108h-6.992l-1.91 3.108h-2.078l8.713-14.004h2.162l2.562 14.004h-1.912zm-2.035-12.2l-4.619 7.538h5.941l-1.322-7.538zM368.286 173.571l1.197-1.26c.967 1.344 2.646 2.204 4.619 2.204 2.184 0 3.086-1.428 3.086-2.604 0-2.751-6.949-2.247-6.949-6.235 0-2.163 2.059-4.074 4.955-4.074 2.162 0 4.074.84 5.061 2.205l-1.197 1.218c-.924-1.28-2.52-1.89-4.053-1.89-1.637 0-2.896 1.113-2.896 2.31 0 2.52 6.949 2.163 6.949 6.194 0 2.225-1.805 4.43-5.102 4.43-2.52.001-4.704-1.069-5.67-2.498zM380.76 175.818l3.086-14.004h9.176l-.336 1.553h-7.434l-1.008 4.515h7.287l-.336 1.554h-7.307l-1.072 4.829h7.455l-.336 1.554h-9.175zM401.592 175.818l2.75-12.452h-4.43l.336-1.553h10.623l-.336 1.553h-4.451l-2.75 12.452h-1.742zM420.028 175.818l1.406-6.425h-8.188l-1.406 6.425h-1.744l3.088-14.004h1.742l-1.322 6.025h8.188l1.322-6.025h1.744l-3.088 14.004h-1.742zM425.047 175.818l3.088-14.004h9.174l-.336 1.553h-7.432l-1.008 4.515h7.285l-.336 1.554h-7.307l-1.07 4.829h7.453l-.336 1.554h-9.175zM442.415 175.818l3.088-14.004h4.682c3.107 0 5.816 2.477 5.816 5.983 0 3.8-2.752 8.021-8.818 8.021h-4.768zm5.06-1.554c4.115 0 6.697-2.939 6.697-6.383 0-2.583-1.848-4.515-4.324-4.515h-2.939l-2.436 10.897h3.0020000000000002zM457.872 169.938c0-4.682 3.506-8.356 7.873-8.356 3.59 0 6.467 2.247 6.467 6.11 0 4.703-3.506 8.377-7.873 8.377-3.59.001-6.467-2.246-6.467-6.131zm12.492-2.141c0-2.981-2.121-4.661-4.725-4.661-3.211 0-5.92 2.834-5.92 6.719 0 3.002 2.1 4.661 4.725 4.661 3.17 0 5.92-2.835 5.92-6.719zM473.936 169.938c0-5.061 3.82-8.356 7.873-8.356 2.771 0 4.746 1.302 5.711 3.296l-1.658.651c-.84-1.659-2.395-2.394-4.158-2.394-3.002 0-5.92 2.666-5.92 6.719 0 2.75 1.826 4.661 4.725 4.661 1.301 0 2.645-.546 3.758-1.596l1.281.966c-1.471 1.575-3.424 2.184-5.145 2.184-3.717.001-6.467-2.414-6.467-6.131zM487.27 173.571l1.197-1.26c.967 1.344 2.646 2.204 4.619 2.204 2.184 0 3.086-1.428 3.086-2.604 0-2.751-6.949-2.247-6.949-6.235 0-2.163 2.059-4.074 4.955-4.074 2.162 0 4.074.84 5.061 2.205l-1.197 1.218c-.924-1.28-2.52-1.89-4.053-1.89-1.637 0-2.896 1.113-2.896 2.31 0 2.52 6.949 2.163 6.949 6.194 0 2.225-1.805 4.43-5.102 4.43-2.52.001-4.703-1.069-5.67-2.498zM502.18 174.978c0-.694.588-1.26 1.281-1.26.588 0 1.049.482 1.049 1.07 0 .694-.588 1.239-1.26 1.239-.607 0-1.07-.461-1.07-1.049zm1.154-3.086l1.912-10.078h1.973l-2.561 10.078h-1.324z"/><path fill="#5C4863" d="M32.903 103.065c9.685 0 14.486-5.122 14.486-11.364 0-14.887-24.33-8.964-24.33-18.648 0-4.001 3.601-7.042 9.604-7.042 5.123 0 9.284 2.081 11.525 5.121l2.322-2.961c-2.802-3.121-7.204-5.682-13.847-5.682-8.724 0-13.767 4.802-13.767 10.724 0 13.927 24.411 7.923 24.411 18.488 0 4.481-3.842 7.843-10.325 7.843-5.441 0-10.004-2.562-12.485-5.682l-2.481 3.042c3.843 4.321 8.645 6.161 14.887 6.161zm53.944-.96v-27.211c0-8.644-6.243-12.405-14.086-12.405-6.402 0-10.884 2.161-14.886 6.483l2.321 2.881c3.521-4.002 7.284-5.683 12.165-5.683 5.683 0 10.325 3.122 10.325 8.884v7.843c-3.362-3.762-7.764-5.522-13.125-5.522-6.723 0-13.526 4.401-13.526 12.805 0 8.324 6.883 12.885 13.526 12.885 5.362 0 9.684-1.76 13.125-5.521v4.561h4.161zm-15.847-2.32c-6.322 0-10.564-4.083-10.564-9.523 0-5.523 4.242-9.604 10.564-9.604 4.642 0 8.964 1.76 11.685 5.361v8.483c-2.721 3.522-7.043 5.283-11.685 5.283zm40.337 3.28c9.684 0 14.485-5.122 14.485-11.364 0-14.887-24.33-8.964-24.33-18.648 0-4.001 3.602-7.042 9.604-7.042 5.122 0 9.284 2.081 11.525 5.121l2.32-2.961c-2.8-3.121-7.203-5.682-13.846-5.682-8.724 0-13.766 4.802-13.766 10.724 0 13.927 24.411 7.923 24.411 18.488 0 4.481-3.842 7.843-10.325 7.843-5.443 0-10.004-2.562-12.486-5.682l-2.48 3.042c3.843 4.321 8.646 6.161 14.888 6.161zm36.736 0c9.684 0 14.486-5.122 14.486-11.364 0-14.887-24.33-8.964-24.33-18.648 0-4.001 3.602-7.042 9.604-7.042 5.122 0 9.284 2.081 11.525 5.121l2.32-2.961c-2.801-3.121-7.202-5.682-13.845-5.682-8.724 0-13.766 4.802-13.766 10.724 0 13.927 24.41 7.923 24.41 18.488 0 4.481-3.842 7.843-10.324 7.843-5.442 0-10.004-2.562-12.486-5.682l-2.481 3.042c3.842 4.321 8.645 6.161 14.887 6.161zm40.364.58c13.019 0 22.095-8.262 22.095-20.906 0-12.518-9.076-20.842-22.157-20.842h-16.461v41.748h16.523zm-.062-7.824h-7.573v-26.101h7.636c8.514 0 13.019 5.696 13.019 13.019-.001 7.136-4.821 13.082-13.082 13.082zm48.32 8.575c12.58 0 21.781-9.013 21.781-21.594s-9.202-21.594-21.781-21.594c-12.644 0-21.845 9.013-21.845 21.594s9.201 21.594 21.845 21.594zm0-7.887c-7.762 0-12.707-5.946-12.707-13.707 0-7.824 4.945-13.707 12.707-13.707 7.698 0 12.643 5.883 12.643 13.707 0 7.76-4.945 13.707-12.643 13.707zm48.321 7.887c9.138 0 14.457-5.07 17.398-10.265l-7.635-3.693c-1.753 3.38-5.508 6.071-9.764 6.071-7.637 0-13.145-5.82-13.145-13.707s5.508-13.707 13.145-13.707c4.256 0 8.011 2.691 9.764 6.071l7.635-3.755c-2.941-5.258-8.261-10.202-17.398-10.202-12.58 0-22.283 8.7-22.283 21.594 0 12.83 9.701 21.593 22.283 21.593z"/><path fill="#DD5A6F" d="M4.899 62.501c-.199.595-.422 1.19-.669 1.786-.249.595-.534 1.116-.856 1.562-.322.447-.683.781-1.079 1.004-.397.223-.819.26-1.265.111-.594-.098-.93-.533-1.004-1.302-.075-.769.012-1.524.26-2.269.348-1.19.856-2.766 1.526-4.725.669-1.958 1.438-4.104 2.306-6.435.866-2.331 1.785-4.748 2.752-7.252s1.896-4.898 2.79-7.179 1.711-4.352 2.455-6.212c.744-1.859 1.314-3.31 1.71-4.352.15-.297.372-.545.67-.744.297-.199.607-.298.93-.298.322 0 .644.099.967.298.322.198.583.521.781.967.396 1.042.421 2.059.075 3.05-.347.793-.843 2.021-1.488 3.682-.645 1.663-1.375 3.534-2.193 5.617-.819 2.083-1.675 4.29-2.567 6.621-.893 2.331-1.736 4.551-2.53 6.658-.793 2.109-1.512 4.005-2.157 5.691-.645 1.688-1.116 2.928-1.414 3.721zm39.65-18.672c-.992-.744-2.07-1.538-3.236-2.381-1.165-.843-2.393-1.711-3.683-2.604.843 3.025 1.736 5.902 2.679 8.63.149.595.087 1.115-.186 1.562-.272.447-.608.67-1.005.67-.645-.099-1.301-.396-1.971-.893-.67-.496-1.129-1.091-1.377-1.785-.198-.446-.446-1.166-.743-2.157-.298-.992-.646-2.158-1.042-3.497-.844 1.24-1.625 2.455-2.343 3.645-.719 1.19-1.4 2.331-2.045 3.422-.397.545-.843.855-1.339.929-.496.076-.868-.037-1.116-.334-.347-.545-.558-1.251-.632-2.12-.075-.867.062-1.599.409-2.194.248-.396.695-1.116 1.339-2.157.646-1.041 1.438-2.256 2.381-3.646-1.041.248-2.059.508-3.05.781-.992.272-1.984.533-2.976.781-.594.099-1.116 0-1.562-.297-.446-.298-.645-.646-.595-1.042.148-.645.483-1.228 1.004-1.748.521-.521 1.129-.88 1.823-1.079.496-.148 1.301-.359 2.417-.632s2.393-.583 3.831-.93c-.992-.595-1.971-1.203-2.938-1.823-.968-.621-1.948-1.203-2.939-1.748-.544-.347-.855-.794-.929-1.339-.076-.545.037-.942.333-1.19.545-.347 1.203-.507 1.972-.483.769.024 1.451.236 2.046.632.496.248 1.19.669 2.083 1.264-.149-.843-.273-1.648-.373-2.417-.099-.77-.174-1.5-.223-2.195-.05-.545.074-1.017.372-1.413s.645-.62 1.041-.669c.348-.1.769.011 1.265.334.496.322.868.929 1.116 1.822.199.942.421 1.91.67 2.901.247.991.496 2.059.744 3.199.992-1.339 1.958-2.604 2.901-3.794s1.835-2.207 2.678-3.05c.396-.396.843-.62 1.339-.669.496-.05.892.074 1.19.372.247.199.434.594.558 1.19.124.595-.087 1.265-.632 2.008-.544.744-1.166 1.576-1.859 2.493-.695.917-1.414 1.896-2.158 2.938 1.29-.248 2.554-.434 3.794-.558 1.24-.123 2.405-.21 3.497-.26.544 0 1.016.099 1.413.297.396.199.62.497.669.893.05.348-.099.768-.446 1.265-.347.496-.967.818-1.86.967-.843.149-1.748.297-2.715.446-.968.148-1.947.322-2.938.52 1.14.843 2.207 1.674 3.198 2.493.993.818 1.911 1.599 2.753 2.343.396.396.656.805.781 1.227.123.42.061.806-.187 1.153-.248.248-.669.422-1.264.521-.594.1-1.239-.098-1.934-.594zm30.203 0c-.992-.744-2.071-1.538-3.236-2.381s-2.393-1.711-3.682-2.604c.842 3.025 1.735 5.902 2.677 8.63.15.595.088 1.115-.186 1.562-.272.447-.607.67-1.004.67-.646-.099-1.302-.396-1.971-.893-.67-.496-1.129-1.091-1.377-1.785-.199-.446-.446-1.166-.743-2.157-.298-.992-.645-2.158-1.042-3.497-.844 1.24-1.625 2.455-2.343 3.645-.719 1.19-1.4 2.331-2.046 3.422-.396.545-.843.855-1.338.929-.496.076-.868-.037-1.116-.334-.348-.545-.559-1.251-.633-2.12-.075-.867.062-1.599.409-2.194.248-.396.695-1.116 1.339-2.157s1.438-2.256 2.38-3.646c-1.041.248-2.059.508-3.05.781-.992.272-1.984.533-2.976.781-.595.099-1.116 0-1.562-.297-.447-.298-.646-.646-.595-1.042.148-.645.483-1.228 1.004-1.748.521-.521 1.128-.88 1.823-1.079.496-.148 1.301-.359 2.417-.632 1.116-.273 2.393-.583 3.831-.93-.992-.595-1.971-1.203-2.938-1.823-.967-.621-1.947-1.203-2.938-1.748-.545-.347-.855-.794-.93-1.339-.075-.545.037-.942.334-1.19.545-.347 1.203-.507 1.972-.483.769.024 1.45.236 2.045.632.496.248 1.191.669 2.083 1.264-.148-.843-.273-1.648-.373-2.417-.099-.77-.173-1.5-.223-2.195-.05-.545.074-1.017.372-1.413.298-.396.645-.62 1.041-.669.348-.1.77.011 1.265.334.496.322.868.929 1.116 1.822.199.942.422 1.91.67 2.901.247.991.496 2.059.744 3.199.992-1.339 1.958-2.604 2.901-3.794.942-1.19 1.835-2.207 2.679-3.05.396-.396.843-.62 1.338-.669.496-.05.893.074 1.19.372.248.199.435.594.558 1.19.124.595-.087 1.265-.632 2.008-.545.744-1.166 1.576-1.86 2.493-.695.917-1.414 1.896-2.158 2.938 1.289-.248 2.554-.434 3.794-.558 1.24-.123 2.405-.21 3.496-.26.545 0 1.017.099 1.414.297.396.199.619.497.669.893.049.348-.099.768-.446 1.265-.348.496-.967.818-1.86.967-.843.149-1.749.297-2.715.446-.967.148-1.947.322-2.938.52 1.14.843 2.208 1.674 3.198 2.493.991.818 1.91 1.599 2.752 2.343.396.396.657.805.781 1.227.124.42.062.806-.186 1.153-.248.248-.67.422-1.265.521-.591.1-1.236-.098-1.93-.594z"/><path fill="#eee" d="M1.579 219.853h728v1h-728z"/></svg>